<svg xmlns="http://www.w3.org/2000/svg" xmlns:xlink="http://www.w3.org/1999/xlink" viewBox="0 0 951.73 204.29"><defs><style>.cls-1{fill:none;}.cls-2{fill:#272727;}.cls-3{fill:#2c4a9a;}.cls-4{clip-path:url(#clip-path);}.cls-5{fill:url(#Dégradé_sans_nom);}.cls-6{clip-path:url(#clip-path-2);}.cls-7{fill:url(#Dégradé_sans_nom_2);}</style><clipPath id="clip-path"><path class="cls-1" d="M461.71,156.34,427.79,168l10,19.68a29.95,29.95,0,0,0,35.94,15.07l33.56-11.45-10.2-19.82a30.15,30.15,0,0,0-26.78-16.4,29.4,29.4,0,0,0-8.58,1.28"/></clipPath><linearGradient id="Dégradé_sans_nom" x1="8035.29" y1="-8220.9" x2="8037.82" y2="-8220.9" gradientTransform="translate(-256730.4 263248.48) scale(32)" gradientUnits="userSpaceOnUse"><stop offset="0" stop-color="#e4032b"/><stop offset="0.41" stop-color="#d40627"/><stop offset="1" stop-color="#b80c22"/></linearGradient><clipPath id="clip-path-2"><path class="cls-1" d="M364.12,16.22,329.36,83.74A29.91,29.91,0,0,0,364.87,126h0l.06,0c.39-.12.77-.25,1.15-.39l10.89-3.7,5.31-10.26c.09-.17.19-.33.28-.51l35.33-68.65.06-.13L424.3,30l-6.57-12.71A29.89,29.89,0,0,0,390.67.11a29.42,29.42,0,0,0-26.54,16.11"/></clipPath><linearGradient id="Dégradé_sans_nom_2" x1="7797.21" y1="-7782.56" x2="7799.74" y2="-7782.56" gradientTransform="translate(547758.92 -546193.45) rotate(180) scale(70.19)" gradientUnits="userSpaceOnUse"><stop offset="0" stop-color="#fcbc05"/><stop offset="0.51" stop-color="#fcbc05"/><stop offset="1" stop-color="#b28908"/></linearGradient></defs><g id="Calque_2" data-name="Calque 2"><g id="a"><polygon class="cls-2" points="64.06 88.87 67.4 204.28 0 204.28 0 0 94.53 0 133.44 109.93 134.96 109.93 168.7 0 266.27 0 266.27 204.28 195.83 204.28 197.96 89.44 196.13 89.16 156.06 204.28 105.05 204.28 65.58 88.87 64.06 88.87"/><polygon class="cls-2" points="866.42 204.28 794.16 204.28 794.16 120.61 713.09 0 800.23 0 834.24 60.02 866.72 0 951.73 0 866.42 120.61 866.42 204.28"/><path class="cls-3" d="M427.79,168l33.92-11.65A30,30,0,0,1,496,169.48l-27-52.12-.21-.43a29.95,29.95,0,0,0-36.09-14L377,121.84h0l-10.89,3.7c-.38.14-.77.27-1.15.39l-.06,0h0a29.91,29.91,0,0,1-35.51-42.22l5-9.8-44.57,86.18a29.91,29.91,0,0,0,26.35,44.06,30.07,30.07,0,0,0,7.64-1l3.38-1.11L427.73,168"/><g class="cls-4"><rect class="cls-5" x="433.91" y="135.04" width="67.2" height="89.14" transform="translate(178.14 588.37) rotate(-75.72)"/></g><g class="cls-6"><rect class="cls-7" x="293.79" y="-8.53" width="158.48" height="145.31" transform="translate(164.49 379.99) rotate(-66.32)"/></g><path class="cls-2" d="M596.81,86.27H611a60.68,60.68,0,0,0,8-.58,25.51,25.51,0,0,0,8.13-2.45,18.11,18.11,0,0,0,6.33-5.19,14,14,0,0,0,2.56-8.8c0-3.66-.71-6.54-2.11-8.66a13.35,13.35,0,0,0-5.42-4.76,22.27,22.27,0,0,0-7.23-2,65.73,65.73,0,0,0-7.23-.43H596.82V86.27ZM527.28,0h92.6A164.78,164.78,0,0,1,651.3,3a81.86,81.86,0,0,1,27.93,10.68A59.16,59.16,0,0,1,699.12,34.2q7.59,12.84,7.59,32.17c0,12.88-3.23,23.51-9.69,33s-15.75,16.88-27.85,22.07l54.54,82.81h-83l-41.18-73H597.4v73H527.27V0Z"/></g></g></svg>